<svg width="56" height="35" viewBox="0 0 56 35" fill="none" xmlns="http://www.w3.org/2000/svg">
<rect width="56" height="35" rx="5" fill="#31364A" fill-opacity="0.55"/>
<path fill-rule="evenodd" clip-rule="evenodd" d="M22.0506 25.5819V26.6697V27.7575H21.5624V27.4934C21.4076 27.6893 21.1726 27.8122 20.8532 27.8122C20.2236 27.8122 19.73 27.3345 19.73 26.6697C19.73 26.0055 20.2236 25.5272 20.8532 25.5272C21.1726 25.5272 21.4076 25.6502 21.5624 25.8461V25.5819H22.0506ZM20.9139 25.9732C20.4913 25.9732 20.2327 26.2873 20.2327 26.6697C20.2327 27.0521 20.4913 27.3663 20.9139 27.3663C21.3178 27.3663 21.5904 27.0657 21.5904 26.6697C21.5904 26.2738 21.3178 25.9732 20.9139 25.9732ZM38.5491 26.6697C38.5491 26.2873 38.8077 25.9732 39.2303 25.9732C39.6347 25.9732 39.9068 26.2738 39.9068 26.6697C39.9068 27.0657 39.6347 27.3663 39.2303 27.3663C38.8077 27.3663 38.5491 27.0521 38.5491 26.6697ZM40.3676 24.7083V26.6697V27.7575H39.8788V27.4934C39.7239 27.6893 39.489 27.8122 39.1696 27.8122C38.5399 27.8122 38.0463 27.3345 38.0463 26.6697C38.0463 26.0055 38.5399 25.5272 39.1696 25.5272C39.489 25.5272 39.7239 25.6502 39.8788 25.8461V24.7083H40.3676ZM28.1109 25.9508C28.4255 25.9508 28.6276 26.142 28.6793 26.4785H27.5141C27.5663 26.1644 27.763 25.9508 28.1109 25.9508ZM27.0022 26.6697C27.0022 25.9914 27.4625 25.5272 28.1206 25.5272C28.7497 25.5272 29.182 25.9914 29.1868 26.6697C29.1868 26.7333 29.182 26.7927 29.1772 26.8516H27.5098C27.5802 27.2433 27.8668 27.3845 28.1814 27.3845C28.4067 27.3845 28.6465 27.3022 28.8347 27.1568L29.0739 27.5075C28.8013 27.7304 28.4916 27.8122 28.1534 27.8122C27.4813 27.8122 27.0022 27.3616 27.0022 26.6697ZM34.0158 26.6697C34.0158 26.2873 34.2745 25.9732 34.6971 25.9732C35.1009 25.9732 35.3735 26.2738 35.3735 26.6697C35.3735 27.0657 35.1009 27.3663 34.6971 27.3663C34.2745 27.3663 34.0158 27.0521 34.0158 26.6697ZM35.8338 25.5819V26.6697V27.7575H35.3456V27.4934C35.1902 27.6893 34.9557 27.8122 34.6363 27.8122C34.0067 27.8122 33.5131 27.3345 33.5131 26.6697C33.5131 26.0055 34.0067 25.5272 34.6363 25.5272C34.9557 25.5272 35.1902 25.6502 35.3456 25.8461V25.5819H35.8338ZM31.2585 26.6697C31.2585 27.3298 31.7328 27.8122 32.4565 27.8122C32.7947 27.8122 33.02 27.7393 33.2641 27.5528L33.0297 27.1704C32.8463 27.298 32.6538 27.3663 32.442 27.3663C32.0522 27.3616 31.7656 27.0886 31.7656 26.6697C31.7656 26.2509 32.0522 25.9779 32.442 25.9732C32.6538 25.9732 32.8463 26.0414 33.0297 26.1691L33.2641 25.7867C33.02 25.6002 32.7947 25.5272 32.4565 25.5272C31.7328 25.5272 31.2585 26.0097 31.2585 26.6697ZM36.9612 25.8461C37.0881 25.6549 37.2715 25.5272 37.5532 25.5272C37.6521 25.5272 37.793 25.5455 37.9011 25.5866L37.7505 26.0326C37.6473 25.9914 37.5441 25.9779 37.4451 25.9779C37.1257 25.9779 36.9661 26.1779 36.9661 26.5379V27.7575H36.4773V25.5819H36.9612V25.8461ZM24.4654 25.7549C24.2304 25.6049 23.9067 25.5272 23.5497 25.5272C22.9808 25.5272 22.6146 25.7914 22.6146 26.2238C22.6146 26.5786 22.8872 26.7974 23.3894 26.8656L23.6201 26.8974C23.8879 26.9339 24.0142 27.0021 24.0142 27.1251C24.0142 27.2933 23.8357 27.3892 23.5024 27.3892C23.1642 27.3892 22.92 27.2845 22.7555 27.1615L22.5254 27.5299C22.7931 27.7211 23.1314 27.8122 23.4975 27.8122C24.146 27.8122 24.5218 27.5163 24.5218 27.1021C24.5218 26.7197 24.2261 26.5197 23.7373 26.4514L23.5072 26.4191C23.2959 26.3921 23.1265 26.3514 23.1265 26.2055C23.1265 26.0461 23.2862 25.9508 23.554 25.9508C23.8406 25.9508 24.118 26.0555 24.254 26.1373L24.4654 25.7549ZM30.1735 25.8461C30.2999 25.6549 30.4832 25.5272 30.765 25.5272C30.8639 25.5272 31.0048 25.5455 31.1129 25.5866L30.9623 26.0326C30.8591 25.9914 30.7558 25.9779 30.6569 25.9779C30.3375 25.9779 30.1778 26.1779 30.1778 26.5379V27.7575H29.6896V25.5819H30.1735V25.8461ZM26.5983 25.5819H25.7999V24.9219H25.3063V25.5819H24.8508V26.0143H25.3063V27.0068C25.3063 27.5116 25.5084 27.8122 26.0859 27.8122C26.2978 27.8122 26.5419 27.7487 26.6967 27.644L26.5558 27.2386C26.4101 27.3204 26.2504 27.3616 26.1235 27.3616C25.8794 27.3616 25.7999 27.2157 25.7999 26.9974V26.0143H26.5983V25.5819ZM19.2982 26.3921V27.7575H18.8046V26.5468C18.8046 26.1779 18.6449 25.9732 18.3115 25.9732C17.9873 25.9732 17.762 26.1738 17.762 26.5515V27.7575H17.2684V26.5468C17.2684 26.1779 17.1044 25.9732 16.7802 25.9732C16.4463 25.9732 16.2301 26.1738 16.2301 26.5515V27.7575H15.7371V25.5819H16.2258V25.8502C16.4092 25.5955 16.6436 25.5272 16.8834 25.5272C17.2265 25.5272 17.4706 25.6731 17.6254 25.9143C17.8324 25.609 18.1282 25.5225 18.4148 25.5272C18.96 25.5319 19.2982 25.8779 19.2982 26.3921Z" fill="white"/>
<path d="M31.7033 21.8851H24.3036V9.00032H31.7033V21.8851Z" fill="#FF5F00"/>
<path d="M24.773 15.443C24.773 12.8292 26.036 10.501 28.0029 9.00058C26.5646 7.9034 24.7493 7.24853 22.7765 7.24853C18.1062 7.24853 14.3203 10.9173 14.3203 15.443C14.3203 19.9687 18.1062 23.6374 22.7765 23.6374C24.7493 23.6374 26.5646 22.9826 28.0029 21.8854C26.036 20.385 24.773 18.0567 24.773 15.443Z" fill="#EB001B"/>
<path d="M41.686 15.443C41.686 19.9687 37.9002 23.6374 33.2298 23.6374C31.257 23.6374 29.4418 22.9826 28.0029 21.8854C29.9703 20.385 31.2334 18.0567 31.2334 15.443C31.2334 12.8292 29.9703 10.501 28.0029 9.00058C29.4418 7.9034 31.257 7.24853 33.2298 7.24853C37.9002 7.24853 41.686 10.9173 41.686 15.443Z" fill="#F79E1B"/>
</svg>
