<svg width="56" height="35" viewBox="0 0 56 35" fill="none" xmlns="http://www.w3.org/2000/svg">
<rect width="56" height="35" rx="5" fill="#31364A" fill-opacity="0.55"/>
<path fill-rule="evenodd" clip-rule="evenodd" d="M43.0344 14.6308C44.3226 14.6308 45.0311 15.212 45.0311 16.3099C45.0955 17.1495 44.5158 17.8598 43.7429 17.989L45.4819 20.3785H44.1293L42.6479 18.0536H42.5191V20.3785H41.4242V14.6308H43.0344ZM42.5191 17.2787H42.8412C43.5497 17.2787 43.8717 16.9558 43.8717 16.3745C43.8717 15.8579 43.5497 15.535 42.8412 15.535H42.5191V17.2787ZM37.6241 20.3785H40.7157V19.4098H38.719V17.8598H40.6513V16.8911H38.719V15.5995H40.7157V14.6308H37.6241V20.3785ZM34.4035 18.5057L32.9221 14.6308H31.7627L34.1459 20.5077H34.7255L37.1087 14.6308H35.9493L34.4035 18.5057ZM21.3286 17.5369C21.3286 19.1514 22.6167 20.5076 24.227 20.5076C24.7422 20.5076 25.1931 20.3785 25.644 20.1847V18.8931C25.3219 19.2806 24.8711 19.5389 24.3558 19.5389C23.3252 19.5389 22.4879 18.7639 22.4879 17.7306V17.6015C22.4235 16.5682 23.2608 15.6641 24.2914 15.5995C24.8066 15.5995 25.3219 15.8578 25.644 16.2453V14.9537C25.2575 14.6954 24.7422 14.6308 24.2914 14.6308C22.6167 14.5016 21.3286 15.8578 21.3286 17.5369ZM19.3319 16.8265C18.6878 16.5682 18.4945 16.4391 18.4945 16.1162C18.5589 15.7287 18.881 15.4058 19.2674 15.4704C19.5895 15.4704 19.9115 15.6641 20.1692 15.9224L20.7488 15.1474C20.298 14.76 19.7183 14.5016 19.1386 14.5016C18.2369 14.4371 17.464 15.1474 17.3996 16.0516V16.1162C17.3996 16.8911 17.7216 17.3432 18.7522 17.6661C19.0098 17.7307 19.2674 17.8598 19.5251 17.989C19.7183 18.1182 19.8471 18.3119 19.8471 18.5702C19.8471 19.0223 19.4607 19.4098 19.0742 19.4098H19.0098C18.4945 19.4098 18.0437 19.0869 17.8504 18.6348L17.1419 19.3452C17.5284 20.0556 18.3013 20.4431 19.0742 20.4431C20.1048 20.5077 20.9421 19.7327 21.0065 18.6994V18.5057C20.9421 17.7307 20.62 17.3432 19.3319 16.8265ZM15.5961 20.3785H16.6911V14.6308H15.5961V20.3785ZM10.5078 14.6308H12.118H12.4401C13.9859 14.6954 15.2097 15.987 15.1453 17.5369C15.1453 18.3765 14.7588 19.1515 14.1147 19.7327C13.535 20.1848 12.8265 20.4431 12.118 20.3785H10.5078V14.6308ZM11.9248 19.4098C12.4401 19.4743 13.0198 19.2806 13.4062 18.9577C13.7927 18.5702 13.9859 18.0536 13.9859 17.4723C13.9859 16.9557 13.7927 16.439 13.4062 16.0516C13.0198 15.7286 12.4401 15.5349 11.9248 15.5995H11.6028V19.4098H11.9248Z" fill="white"/>
<path fill-rule="evenodd" clip-rule="evenodd" d="M28.9289 14.4976C27.3187 14.4976 25.9661 15.7892 25.9661 17.4683C25.9661 19.0828 27.2542 20.439 28.9289 20.5036C30.6035 20.5682 31.8917 19.212 31.9561 17.5329C31.8917 15.8538 30.6035 14.4976 28.9289 14.4976V14.4976Z" fill="#FD6020"/>
</svg>
