<svg width="56" height="35" viewBox="0 0 56 35" fill="none" xmlns="http://www.w3.org/2000/svg">
<rect width="56" height="35" rx="5" fill="#31364A" fill-opacity="0.55"/>
<rect x="15.1719" y="8.98584" width="25.4596" height="16.8671" rx="3.5" fill="#006FCF" stroke="#F3F3F3"/>
<path fill-rule="evenodd" clip-rule="evenodd" d="M20.0839 21.392V17.7138H24.3373L24.7937 18.2585L25.2651 17.7138H40.7041V21.1384C40.7041 21.1384 40.3003 21.3883 39.8334 21.392H31.2845L30.77 20.8122V21.392H29.084V20.4023C29.084 20.4023 28.8536 20.5404 28.3557 20.5404H27.7818V21.392H25.2291L24.7734 20.8356L24.3107 21.392H20.0839ZM15.1281 14.9416L16.085 12.8942H17.7401L18.2832 14.0411V12.8942H20.3405L20.6638 13.7231L20.9773 12.8942H30.2126V13.3109C30.2126 13.3109 30.6981 12.8942 31.496 12.8942L34.4925 12.9038L35.0262 14.0357V12.8942H36.7479L37.2218 13.5443V12.8942H38.9593V16.5723H37.2218L36.7677 15.9201V16.5723H34.2381L33.9837 15.9925H33.3037L33.0535 16.5723H31.338C30.6515 16.5723 30.2126 16.1641 30.2126 16.1641V16.5723H27.6261L27.1128 15.9925V16.5723H17.4949L17.2407 15.9925H16.5628L16.3104 16.5723H15.1281V14.9416ZM15.133 16.1017L16.4238 13.3476H17.4024L18.6919 16.1017H17.8331L17.5961 15.5502H16.2116L15.9734 16.1017H15.133ZM17.3235 14.9523L16.9014 13.9886L16.4782 14.9523H17.3235ZM18.7807 16.1013V13.3471L19.9749 13.3512L20.6695 15.1269L21.3475 13.3471H22.5321V16.1013H21.7819V14.0719L20.9866 16.1013H20.3286L19.531 14.0719V16.1013H18.7807ZM23.0455 16.1013V13.3471H25.4938V13.9632H23.8037V14.4343H25.4543V15.0141H23.8037V15.5033H25.4938V16.1013H23.0455ZM25.9281 16.1017V13.3476H27.5977C28.1509 13.3476 28.6466 13.6615 28.6466 14.2411C28.6466 14.7365 28.2287 15.0556 27.8235 15.087L28.8107 16.1017H27.8939L26.9943 15.1232H26.6784V16.1017H25.9281ZM27.5361 13.9636H26.6784V14.5434H27.5472C27.6976 14.5434 27.8915 14.4365 27.8915 14.2535C27.8915 14.1113 27.7418 13.9636 27.5361 13.9636ZM29.719 16.1013H28.9529V13.3471H29.719V16.1013ZM31.5354 16.1013H31.3701C30.57 16.1013 30.0842 15.5228 30.0842 14.7355C30.0842 13.9288 30.5646 13.3471 31.5749 13.3471H32.4042V13.9994H31.5446C31.1345 13.9994 30.8444 14.2932 30.8444 14.7423C30.8444 15.2757 31.1761 15.4997 31.6539 15.4997H31.8514L31.5354 16.1013ZM31.8773 16.1017L33.1681 13.3476H34.1467L35.4362 16.1017H34.5774L34.3404 15.5502H32.9559L32.7177 16.1017H31.8773ZM34.0678 14.9523L33.6458 13.9886L33.2225 14.9523H34.0678ZM35.5238 16.1013V13.3471H36.4777L37.6957 15.0775V13.3471H38.446V16.1013H37.5229L36.2741 14.3256V16.1013H35.5238ZM20.5972 20.9209V18.1668H23.0455V18.7829H21.3554V19.254H23.006V19.8338H21.3554V20.323H23.0455V20.9209H20.5972ZM32.5938 20.9209V18.1668H35.0421V18.7829H33.3519V19.254H34.9947V19.8338H33.3519V20.323H35.0421V20.9209H32.5938ZM23.1405 20.9209L24.3325 19.5609L23.1121 18.1668H24.0573L24.7842 19.0286L25.5135 18.1668H26.4217L25.2173 19.5439L26.4116 20.9209H25.4664L24.7607 20.0727L24.0721 20.9209H23.1405ZM26.5008 20.9214V18.1673H28.158C28.8381 18.1673 29.2353 18.5695 29.2353 19.0936C29.2353 19.7263 28.7288 20.0516 28.0606 20.0516H27.2708V20.9214H26.5008ZM28.1025 18.7901H27.2707V19.4243H28.1C28.3191 19.4243 28.4727 19.291 28.4727 19.1072C28.4727 18.9115 28.3183 18.7901 28.1025 18.7901ZM29.5611 20.9209V18.1668H31.2307C31.784 18.1668 32.2796 18.4808 32.2796 19.0603C32.2796 19.5558 31.8617 19.8749 31.4566 19.9063L32.4438 20.9209H31.5269L30.6273 19.9425H30.3114V20.9209H29.5611ZM31.1691 18.7829H30.3114V19.3627H31.1802C31.3306 19.3627 31.5245 19.2557 31.5245 19.0728C31.5245 18.9305 31.3748 18.7829 31.1691 18.7829ZM35.3895 20.9209V20.323H36.891C37.1132 20.323 37.2094 20.2128 37.2094 20.092C37.2094 19.9762 37.1135 19.8592 36.891 19.8592H36.2125C35.6227 19.8592 35.2942 19.5294 35.2942 19.0343C35.2942 18.5927 35.595 18.1668 36.4715 18.1668H37.9325L37.6166 18.7865H36.353C36.1115 18.7865 36.0371 18.9028 36.0371 19.0139C36.0371 19.1281 36.129 19.254 36.3135 19.254H37.0243C37.6818 19.254 37.9671 19.5962 37.9671 20.0444C37.9671 20.5263 37.6492 20.9209 36.9885 20.9209H35.3895ZM38.0333 20.9209V20.323H39.5349C39.757 20.323 39.8532 20.2128 39.8532 20.092C39.8532 19.9762 39.7573 19.8592 39.5349 19.8592H38.8563C38.2665 19.8592 37.9381 19.5294 37.9381 19.0343C37.9381 18.5927 38.2389 18.1668 39.1153 18.1668H40.5764L40.2605 18.7865H38.9968C38.7553 18.7865 38.6809 18.9028 38.6809 19.0139C38.6809 19.1281 38.7728 19.254 38.9573 19.254H39.6681C40.3256 19.254 40.6109 19.5962 40.6109 20.0444C40.6109 20.5263 40.293 20.9209 39.6323 20.9209H38.0333Z" fill="white"/>
</svg>
