<svg width="56" height="35" viewBox="0 0 56 35" fill="none" xmlns="http://www.w3.org/2000/svg">
<rect width="56" height="35" rx="5" fill="#31364A" fill-opacity="0.55"/>
<path d="M31.6711 21.8584H24.2849V8.99712H31.6711V21.8584Z" fill="#6C6BBD"/>
<path d="M24.7539 15.428C24.7539 12.8191 26.0146 10.4951 27.9779 8.99739C26.5422 7.90221 24.7303 7.24854 22.7611 7.24854C18.0993 7.24854 14.3203 10.9106 14.3203 15.428C14.3203 19.9455 18.0993 23.6075 22.7611 23.6075C24.7303 23.6075 26.5422 22.9538 27.9779 21.8587C26.0146 20.361 24.7539 18.037 24.7539 15.428Z" fill="#EB001B"/>
<path d="M41.6359 15.428C41.6359 19.9455 37.8569 23.6075 33.1951 23.6075C31.2259 23.6075 29.414 22.9538 27.9778 21.8587C29.9416 20.361 31.2023 18.037 31.2023 15.428C31.2023 12.8191 29.9416 10.4951 27.9778 8.99739C29.414 7.90221 31.2259 7.24854 33.1951 7.24854C37.8569 7.24854 41.6359 10.9106 41.6359 15.428Z" fill="#0099DF"/>
<path d="M34.1701 25.4926C34.2684 25.4926 34.4095 25.5108 34.5174 25.5519L34.3671 25.997C34.2641 25.9559 34.161 25.9424 34.0623 25.9424C33.7435 25.9424 33.5841 26.1421 33.5841 26.5009V27.7188H33.0962V25.5472H33.5792V25.8108C33.7059 25.62 33.8889 25.4926 34.1701 25.4926Z" fill="white"/>
<path d="M32.368 25.9788H31.5709V26.9601C31.5709 27.178 31.6504 27.3236 31.8946 27.3236C32.0212 27.3236 32.1806 27.2825 32.3256 27.2009L32.4662 27.6049C32.3116 27.7095 32.0679 27.7734 31.857 27.7734C31.28 27.7734 31.0788 27.4734 31.0788 26.969V25.9788H30.6237V25.5472H31.0788V24.8883H31.5709V25.5472H32.368V25.9788Z" fill="white"/>
<path fill-rule="evenodd" clip-rule="evenodd" d="M26.7315 25.4926C27.36 25.4926 27.7915 25.9559 27.7964 26.633C27.7964 26.696 27.7916 26.7543 27.7868 26.8131L27.7867 26.8145H26.1224C26.1927 27.205 26.4787 27.346 26.7927 27.346C27.0176 27.346 27.257 27.2643 27.4443 27.1187L27.6837 27.4687C27.4115 27.6913 27.1024 27.7729 26.7648 27.7729C26.0939 27.7729 25.6157 27.3231 25.6157 26.633C25.6157 25.9559 26.0751 25.4926 26.7315 25.4926ZM26.7224 25.9149C26.3751 25.9149 26.1787 26.1286 26.1266 26.4422H27.2897C27.2382 26.1057 27.0364 25.9149 26.7224 25.9149Z" fill="white"/>
<path d="M29.9388 26.1016C29.803 26.0194 29.5266 25.9149 29.2405 25.9149C28.9732 25.9149 28.8138 26.0106 28.8138 26.1697C28.8138 26.3148 28.9824 26.3558 29.1933 26.3829L29.423 26.4146C29.9109 26.4833 30.206 26.6829 30.206 27.0646C30.206 27.4781 29.8309 27.7734 29.1842 27.7734C28.8181 27.7734 28.4805 27.6824 28.2133 27.4916L28.443 27.1234C28.6072 27.2461 28.8514 27.3507 29.189 27.3507C29.5217 27.3507 29.6999 27.2555 29.6999 27.087C29.6999 26.9648 29.5733 26.8962 29.306 26.8603L29.0763 26.8286C28.5745 26.7599 28.3024 26.542 28.3024 26.1879C28.3024 25.7563 28.6684 25.4926 29.2357 25.4926C29.5921 25.4926 29.9157 25.5701 30.1497 25.7199L29.9388 26.1016Z" fill="white"/>
<path fill-rule="evenodd" clip-rule="evenodd" d="M36.4356 25.5805C36.2875 25.5217 36.1265 25.4926 35.9526 25.4926C35.7787 25.4926 35.6177 25.5217 35.4695 25.5805C35.3214 25.6387 35.1942 25.7193 35.0869 25.8218C34.9795 25.9242 34.8953 26.0454 34.8341 26.1848C34.7729 26.3246 34.7423 26.4765 34.7423 26.6403C34.7423 26.8041 34.7729 26.956 34.8341 27.0958C34.8953 27.2352 34.9795 27.3569 35.0869 27.4593C35.1942 27.5618 35.3214 27.6419 35.4695 27.7006C35.6177 27.7589 35.7787 27.788 35.9526 27.788C36.1265 27.788 36.2875 27.7589 36.4356 27.7006C36.5838 27.6419 36.712 27.5618 36.8199 27.4593C36.9283 27.3569 37.0126 27.2352 37.0738 27.0958C37.1349 26.956 37.1655 26.8041 37.1655 26.6403C37.1655 26.4765 37.1349 26.3246 37.0738 26.1848C37.0126 26.0454 36.9283 25.9242 36.8199 25.8218C36.712 25.7193 36.5838 25.6387 36.4356 25.5805ZM35.6729 25.9923C35.7593 25.9585 35.8522 25.9414 35.9525 25.9414C36.0529 25.9414 36.1463 25.9585 36.2322 25.9923C36.3186 26.0267 36.3937 26.0745 36.4565 26.1359C36.5204 26.1972 36.5697 26.2711 36.6062 26.3569C36.6422 26.4427 36.6599 26.5373 36.6599 26.6403C36.6599 26.7438 36.6422 26.8379 36.6062 26.9237C36.5697 27.0095 36.5204 27.0834 36.4565 27.1447C36.3937 27.2061 36.3186 27.2539 36.2322 27.2882C36.1463 27.3226 36.0529 27.3392 35.9525 27.3392C35.8522 27.3392 35.7593 27.3226 35.6729 27.2882C35.587 27.2539 35.5124 27.2061 35.4496 27.1447C35.3868 27.0834 35.3375 27.0095 35.3015 26.9237C35.2656 26.8379 35.2478 26.7438 35.2478 26.6403C35.2478 26.5373 35.2656 26.4427 35.3015 26.3569C35.3375 26.2711 35.3868 26.1972 35.4496 26.1359C35.5124 26.0745 35.587 26.0267 35.6729 25.9923Z" fill="white"/>
<path fill-rule="evenodd" clip-rule="evenodd" d="M25.0924 25.5472V26.633V27.7188H24.605V27.4552C24.4499 27.6507 24.2159 27.7734 23.8971 27.7734C23.2686 27.7734 22.7765 27.2961 22.7765 26.633C22.7765 25.9695 23.2686 25.4926 23.8971 25.4926C24.2159 25.4926 24.4499 25.6153 24.605 25.8109V25.5472H25.0924ZM23.9578 25.9377C23.5359 25.9377 23.2778 26.2513 23.2778 26.633C23.2778 27.0147 23.5359 27.3278 23.9578 27.3278C24.3608 27.3278 24.6329 27.0282 24.6329 26.633C24.6329 26.2378 24.3608 25.9377 23.9578 25.9377Z" fill="white"/>
<path d="M22.3451 27.7188V26.3558C22.3451 25.8425 22.0075 25.4972 21.4638 25.4926C21.1777 25.4879 20.882 25.5742 20.6759 25.8789C20.5214 25.6382 20.2772 25.4926 19.9347 25.4926C19.6959 25.4926 19.4614 25.5607 19.2783 25.815V25.5472H18.791V27.7188H19.2832V26.5149C19.2832 26.1379 19.4989 25.9377 19.8317 25.9377C20.1553 25.9377 20.3196 26.1421 20.3196 26.5103V27.7188H20.8117V26.5149C20.8117 26.1379 21.0371 25.9377 21.3602 25.9377C21.6935 25.9377 21.8529 26.1421 21.8529 26.5103V27.7188H22.3451V27.7188Z" fill="white"/>
</svg>
