<svg width="56" height="35" viewBox="0 0 56 35" fill="none" xmlns="http://www.w3.org/2000/svg">
<rect width="56" height="35" rx="5" fill="#31364A" fill-opacity="0.55"/>
<path d="M20.7015 9.90028H26.7534C27.5982 9.90028 28.1236 10.5917 27.9265 11.4427L25.1089 23.5889C24.9101 24.4369 24.0643 25.1289 23.2189 25.1289H17.1676C16.324 25.1289 15.7974 24.4369 15.9945 23.5889L18.8132 11.4427C19.0103 10.5917 19.8557 9.90028 20.7015 9.90028Z" fill="#E21836"/>
<path d="M26.2495 9.89941H33.209C34.0536 9.89941 33.6727 10.5908 33.474 11.4418L30.6569 23.588C30.4592 24.4361 30.5209 25.128 29.6745 25.128H22.715C21.8686 25.128 21.3448 24.4361 21.5436 23.588L24.3606 11.4418C24.5606 10.5908 25.4042 9.89941 26.2495 9.89941Z" fill="#00447C"/>
<path d="M32.933 9.89941H38.9849C39.8309 9.89941 40.3563 10.5908 40.1576 11.4418L37.3405 23.588C37.1416 24.4361 36.2952 25.128 35.4494 25.128H29.4003C28.5539 25.128 28.0289 24.4361 28.2272 23.588L31.0447 11.4418C31.2418 10.5908 32.0866 9.89941 32.933 9.89941Z" fill="#007B84"/>
<path d="M22.2817 13.7919C21.6594 13.7982 21.4756 13.7919 21.4168 13.7779C21.3943 13.8856 20.9743 15.8307 20.9731 15.8324C20.8827 16.2259 20.8169 16.5064 20.5934 16.6875C20.4666 16.7929 20.3185 16.8437 20.1468 16.8437C19.8708 16.8437 19.71 16.7061 19.683 16.4451L19.6779 16.3555C19.6779 16.3555 19.7619 15.8284 19.7619 15.8254C19.7619 15.8254 20.2027 14.0528 20.2816 13.8185C20.2857 13.8052 20.2869 13.7982 20.288 13.7919C19.43 13.7994 19.278 13.7919 19.2675 13.7779C19.2617 13.797 19.2405 13.9069 19.2405 13.9069L18.7904 15.9048L18.7518 16.0742L18.677 16.6285C18.677 16.7929 18.7092 16.927 18.7732 17.0405C18.9782 17.4003 19.5631 17.4542 19.894 17.4542C20.3203 17.4542 20.7202 17.3632 20.9904 17.1972C21.4595 16.9189 21.5822 16.4839 21.6917 16.0973L21.7424 15.899C21.7424 15.899 22.1964 14.058 22.2736 13.8185C22.2765 13.8052 22.2777 13.7982 22.2817 13.7919ZM23.8265 15.277C23.7171 15.277 23.517 15.3037 23.3374 15.3921C23.2722 15.4257 23.2105 15.4645 23.1455 15.5032L23.2042 15.2903L23.172 15.2545C22.791 15.332 22.7057 15.3423 22.3538 15.3921L22.3243 15.4118C22.2834 15.752 22.2471 16.0078 22.0956 16.6765C22.038 16.923 21.9781 17.1718 21.918 17.4176L21.9343 17.4489C22.2949 17.4298 22.4044 17.4298 22.7178 17.435L22.7432 17.4073C22.783 17.2024 22.7882 17.1545 22.8764 16.7396C22.9179 16.5429 23.0043 16.1107 23.0469 15.9568C23.1253 15.9204 23.2026 15.8846 23.2763 15.8846C23.452 15.8846 23.4306 16.0384 23.4238 16.0998C23.4163 16.2027 23.3523 16.5389 23.2866 16.8276L23.2428 17.0139C23.2123 17.1515 23.1788 17.2852 23.1483 17.4216L23.1615 17.4489C23.517 17.4298 23.6255 17.4298 23.929 17.435L23.9647 17.4073C24.0196 17.0874 24.0357 17.0017 24.133 16.5359L24.182 16.3219C24.2772 15.9031 24.325 15.6907 24.253 15.5177C24.1769 15.3238 23.9942 15.277 23.8265 15.277ZM25.5523 15.7156C25.3633 15.752 25.2428 15.7763 25.123 15.792C25.0043 15.8111 24.8885 15.8284 24.7059 15.8539L24.6914 15.8671L24.6781 15.8776C24.6591 16.0141 24.6458 16.1322 24.6206 16.271C24.5992 16.4145 24.5663 16.5775 24.5128 16.8119C24.4713 16.9912 24.4499 17.0537 24.4263 17.1168C24.4033 17.1799 24.3779 17.2412 24.3313 17.4176L24.3422 17.4339L24.3514 17.4489C24.5221 17.4407 24.6337 17.435 24.7485 17.4339C24.8631 17.4298 24.9818 17.4339 25.1656 17.435L25.1817 17.4218L25.199 17.4073C25.2255 17.2482 25.2295 17.2054 25.2457 17.1278C25.2618 17.0445 25.2895 16.9293 25.3576 16.6215C25.3897 16.477 25.4256 16.3329 25.4589 16.1854C25.4936 16.0384 25.5298 15.8937 25.5644 15.7492L25.5592 15.7317L25.5523 15.7156ZM25.5563 15.1243C25.3846 15.0225 25.0832 15.0548 24.8804 15.1954C24.6782 15.3331 24.6552 15.5286 24.8263 15.6317C24.995 15.7306 25.2976 15.7012 25.4986 15.5594C25.7004 15.4187 25.7256 15.225 25.5563 15.1243ZM26.5947 17.4808C26.9421 17.4808 27.2982 17.3846 27.5662 17.0994C27.7724 16.868 27.867 16.5238 27.8997 16.3821C28.0064 15.9123 27.9233 15.6929 27.819 15.5593C27.6606 15.3557 27.3806 15.2904 27.0902 15.2904C26.9155 15.2904 26.4995 15.3077 26.1746 15.6085C25.9412 15.8255 25.8334 16.1199 25.7683 16.4022C25.7027 16.6899 25.6272 17.2077 26.1014 17.4003C26.2477 17.4634 26.4587 17.4808 26.5947 17.4808ZM26.5675 16.4237C26.6476 16.0679 26.7422 15.7694 26.9835 15.7694C27.1726 15.7694 27.1863 15.9915 27.1023 16.3485C27.0872 16.4277 27.0182 16.7223 26.9248 16.8477C26.8596 16.9403 26.7825 16.9964 26.6972 16.9964C26.6718 16.9964 26.5209 16.9964 26.5186 16.7715C26.5174 16.6604 26.54 16.5469 26.5675 16.4237ZM28.7681 17.435L28.7952 17.4073C28.8337 17.2025 28.8401 17.1543 28.9253 16.7396C28.968 16.543 29.0562 16.1108 29.0976 15.9569C29.1761 15.9203 29.2521 15.8845 29.3282 15.8845C29.5027 15.8845 29.4814 16.0383 29.4745 16.0997C29.4682 16.2027 29.4042 16.5388 29.3373 16.8275L29.2959 17.0138C29.2642 17.1515 29.2296 17.2851 29.1991 17.4217L29.2124 17.4489C29.5691 17.4298 29.6734 17.4298 29.9787 17.435L30.0156 17.4073C30.0691 17.0873 30.0836 17.0016 30.1839 16.536L30.2317 16.3218C30.3273 15.903 30.3757 15.6907 30.3048 15.5177C30.2265 15.3239 30.0427 15.2771 29.8774 15.2771C29.7678 15.2771 29.5667 15.3036 29.3881 15.3921C29.3242 15.4258 29.2602 15.4644 29.1973 15.5032L29.2521 15.2904L29.2227 15.2544C28.8418 15.332 28.7548 15.3424 28.4033 15.3921L28.3763 15.4118C28.3337 15.752 28.299 16.0077 28.1475 16.6765C28.0898 16.923 28.03 17.1718 27.9701 17.4177L27.9861 17.4489C28.3474 17.4298 28.4552 17.4298 28.7681 17.435ZM31.3887 17.4489C31.4111 17.339 31.5443 16.6876 31.5455 16.6876C31.5455 16.6876 31.6589 16.2096 31.6658 16.1923C31.6658 16.1923 31.7015 16.1425 31.7372 16.1228H31.7898C32.2852 16.1228 32.8447 16.1228 33.2833 15.7989C33.5817 15.5768 33.7857 15.2487 33.8767 14.85C33.9003 14.7522 33.9177 14.636 33.9177 14.5197C33.9177 14.367 33.8872 14.2159 33.799 14.0979C33.5754 13.7837 33.13 13.778 32.616 13.7756C32.6143 13.7756 32.3625 13.778 32.3625 13.778C31.7045 13.7861 31.4406 13.7837 31.3322 13.7704C31.323 13.8186 31.3058 13.9042 31.3058 13.9042C31.3058 13.9042 31.0701 15.0011 31.0701 15.0028C31.0701 15.0028 30.506 17.335 30.4794 17.4449C31.054 17.4379 31.2895 17.4379 31.3887 17.4489ZM31.8255 15.5003C31.8255 15.5003 32.0761 14.4057 32.0749 14.4098L32.083 14.3537L32.0865 14.3109L32.1867 14.3212C32.1867 14.3212 32.7036 14.3658 32.7157 14.367C32.9197 14.4462 33.0038 14.6505 32.945 14.9171C32.8915 15.1607 32.7341 15.3656 32.5319 15.4645C32.3653 15.5483 32.1613 15.5553 31.9511 15.5553H31.8151L31.8255 15.5003ZM33.3859 16.444C33.3196 16.7275 33.2435 17.2453 33.7154 17.4298C33.8659 17.4941 34.0007 17.5132 34.1377 17.5062C34.2824 17.4984 34.4165 17.4255 34.5407 17.3206C34.5295 17.3637 34.5183 17.4068 34.5071 17.4501L34.5285 17.4778C34.8679 17.4634 34.9732 17.4634 35.341 17.4662L35.3743 17.4408C35.428 17.1238 35.4786 16.816 35.6181 16.2097C35.6861 15.9192 35.754 15.6316 35.8238 15.3423L35.8128 15.3105C35.4332 15.3812 35.3317 15.3963 34.9664 15.4482L34.9387 15.4709C34.935 15.5004 34.9312 15.5287 34.9276 15.557C34.8708 15.4648 34.7885 15.3862 34.6615 15.3372C34.4991 15.273 34.1177 15.3557 33.7897 15.6554C33.5593 15.8695 33.4487 16.1627 33.3859 16.444ZM34.1833 16.4613C34.2646 16.1119 34.358 15.8163 34.5999 15.8163C34.7528 15.8163 34.8334 15.958 34.817 16.1998C34.804 16.26 34.79 16.3236 34.7733 16.3954C34.7492 16.4992 34.7229 16.6022 34.6974 16.7052C34.6714 16.7757 34.6412 16.8423 34.608 16.8865C34.5457 16.9751 34.3976 17.0301 34.3124 17.0301C34.2882 17.0301 34.1389 17.0301 34.1337 16.8091C34.1326 16.699 34.1551 16.5857 34.1833 16.4613ZM38.3476 15.3077L38.3182 15.2741C37.9425 15.3505 37.8745 15.3626 37.5293 15.4094L37.504 15.4349C37.5028 15.439 37.5018 15.4454 37.5 15.4512L37.4988 15.4454C37.2418 16.0407 37.2494 15.9123 37.0402 16.3809C37.039 16.3595 37.039 16.3462 37.0378 16.3236L36.9855 15.3077L36.9526 15.2741C36.559 15.3505 36.5497 15.3626 36.1863 15.4094L36.1579 15.4349C36.154 15.447 36.154 15.4604 36.1516 15.4749L36.154 15.4801C36.1994 15.7132 36.1885 15.6612 36.2341 16.0291C36.2553 16.2097 36.2836 16.3912 36.3049 16.5696C36.3407 16.868 36.3608 17.0149 36.4046 17.4704C36.1591 17.8771 36.101 18.031 35.8647 18.3879L35.8663 18.3915L35.6999 18.6557C35.6809 18.6835 35.6636 18.7026 35.6394 18.7108C35.6129 18.724 35.5784 18.7263 35.5304 18.7263H35.4382L35.3012 19.184L35.7713 19.1921C36.0473 19.191 36.2208 19.0614 36.3142 18.8872L36.6098 18.3786H36.605L36.6362 18.3427C36.835 17.9129 38.3476 15.3077 38.3476 15.3077ZM33.3859 21.3183H33.1864L33.9246 18.867H34.1694L34.2472 18.6144L34.2547 18.8953C34.2455 19.0688 34.3815 19.2227 34.7388 19.1972H35.152L35.2942 18.7252H35.1387C35.0493 18.7252 35.0079 18.7026 35.013 18.654L35.0055 18.3683H34.2404V18.3698C33.993 18.3749 33.2543 18.3936 33.1047 18.4336C32.9237 18.4804 32.733 18.6181 32.733 18.6181L32.8079 18.3653H32.0922L31.9431 18.867L31.195 21.3558H31.0499L30.9075 21.8244H32.3331L32.2853 21.9807H32.9877L33.0343 21.8244H33.2314L33.3859 21.3183ZM32.801 19.3651C32.6864 19.3969 32.4731 19.4935 32.4731 19.4935L32.6628 18.867H33.2314L33.0942 19.3234C33.0942 19.3234 32.9185 19.3338 32.801 19.3651ZM32.8119 20.2601C32.8119 20.2601 32.6333 20.2826 32.5157 20.3093C32.3999 20.3445 32.1828 20.4556 32.1828 20.4556L32.3787 19.8036H32.9503L32.8119 20.2601ZM32.4933 21.3241H31.9229L32.0882 20.7739H32.6569L32.4933 21.3241ZM33.867 19.8036H34.6892L34.571 20.1878H33.7379L33.6128 20.6078H34.3418L33.7898 21.3882C33.7512 21.4456 33.7165 21.4658 33.678 21.482C33.6394 21.5017 33.5886 21.5248 33.5299 21.5248H33.3277L33.1887 21.9848H33.7177C33.9926 21.9848 34.1551 21.8592 34.275 21.6944L34.6535 21.1742L34.7348 21.7024C34.752 21.8013 34.8228 21.8592 34.8708 21.8817C34.9237 21.9084 34.9785 21.9542 35.0557 21.961C35.1387 21.9645 35.1985 21.9673 35.2384 21.9673H35.4983L35.6543 21.4525H35.5518C35.493 21.4525 35.3916 21.4426 35.3744 21.4241C35.3571 21.4016 35.3571 21.3669 35.3478 21.3142L35.2654 20.7848H34.9277L35.0758 20.6078H35.9073L36.0352 20.1878H35.2654L35.3853 19.8036H36.1528L36.2951 19.3298H34.007L33.867 19.8036ZM26.9225 21.4311L27.1144 20.7901H27.9031L28.0472 20.3133H27.2578L27.3783 19.9187H28.1498L28.2927 19.4571H26.3624L26.2224 19.9187H26.6609L26.544 20.3133H26.1042L25.9585 20.7982H26.3969L26.1411 21.6463C26.1066 21.7586 26.1573 21.8014 26.1895 21.8535C26.2224 21.9043 26.2557 21.9379 26.3307 21.957C26.408 21.9743 26.4609 21.9847 26.5329 21.9847H27.4221L27.5805 21.4566L27.1864 21.5109C27.1103 21.5109 26.8995 21.5017 26.9225 21.4311ZM27.0129 18.3624L26.8131 18.7252C26.7703 18.8044 26.7318 18.8536 26.6971 18.8762C26.6666 18.8953 26.6061 18.9033 26.5185 18.9033H26.4142L26.2748 19.3674H26.6212C26.7877 19.3674 26.9156 19.306 26.9767 19.2754C27.0423 19.2401 27.0596 19.2603 27.1103 19.2111L27.2273 19.1093H28.3088L28.4523 18.6262H27.6607L27.7989 18.3624H27.0129ZM28.6097 21.4404C28.5912 21.4137 28.6045 21.3668 28.6327 21.269L28.9283 20.2866H29.9799C30.1331 20.2844 30.2438 20.2826 30.3157 20.2774C30.393 20.2693 30.4771 20.2416 30.5687 20.1918C30.6633 20.1397 30.7117 20.0848 30.7525 20.0217C30.7981 19.9587 30.8713 19.821 30.9341 19.6086L31.3057 18.3653L30.2144 18.3717C30.2144 18.3717 29.8784 18.4215 29.7304 18.4764C29.5812 18.5377 29.3679 18.709 29.3679 18.709L29.4664 18.3682H28.7923L27.8485 21.5109C27.815 21.6329 27.7926 21.7215 27.7874 21.7747C27.7857 21.832 27.8594 21.8887 27.9072 21.9315C27.9637 21.9743 28.0472 21.9674 28.1273 21.9743C28.2115 21.9807 28.3313 21.9847 28.4967 21.9847H29.0147L29.1737 21.4456L28.71 21.4896C28.6604 21.4896 28.6246 21.4629 28.6097 21.4404ZM29.119 19.6231H30.2236L30.1533 19.8441C30.1435 19.8493 30.1199 19.8331 30.0075 19.8464H29.051L29.119 19.6231ZM29.3403 18.882H30.4541L30.374 19.1481C30.374 19.1481 29.849 19.1429 29.7649 19.1585C29.395 19.2228 29.1789 19.4212 29.1789 19.4212L29.3403 18.882ZM30.1781 20.5841C30.1689 20.6171 30.1545 20.6372 30.1343 20.6524C30.1118 20.6669 30.0755 20.672 30.0214 20.672H29.864L29.8733 20.4029H29.2187L29.1921 21.7186C29.1911 21.8135 29.2002 21.8685 29.2694 21.9125C29.3386 21.9674 29.5517 21.9744 29.8386 21.9744H30.2489L30.397 21.4819L30.0398 21.5016L29.9211 21.5086C29.9049 21.5016 29.8894 21.4952 29.8721 21.4779C29.8571 21.463 29.8317 21.4721 29.8358 21.3772L29.8386 21.04L30.2132 21.0244C30.4154 21.0244 30.5018 20.9583 30.5756 20.8954C30.646 20.8351 30.669 20.7658 30.6955 20.672L30.7584 20.3735H30.2437L30.1781 20.5841Z" fill="#FEFEFE"/>
</svg>
