<svg width="25" height="23" viewBox="0 0 25 23" fill="none" xmlns="http://www.w3.org/2000/svg">
<path d="M7.01036 1.16667C7.01036 0.631646 6.57664 0.197922 6.04161 0.197922C5.50659 0.197922 5.07286 0.631646 5.07286 1.16667V3.51289C3.14431 3.78554 1.62072 5.31092 1.36281 7.25667L1.25101 8.10007C1.23206 8.24306 1.21394 8.38613 1.19664 8.52927C1.15077 8.90898 1.44992 9.23959 1.83239 9.23959H23.1674C23.5499 9.23959 23.8491 8.90898 23.8032 8.52927C23.7859 8.38613 23.7678 8.24305 23.7488 8.10006L23.637 7.25667C23.3791 5.31094 21.8555 3.78558 19.927 3.5129V1.16667C19.927 0.631646 19.4933 0.197922 18.9583 0.197922C18.4233 0.197922 17.9895 0.631646 17.9895 1.16667V3.3207C14.337 2.99542 10.6629 2.99542 7.01036 3.32069V1.16667Z" fill="#0079F0"/>
<path d="M24.0533 11.7913C24.042 11.4472 23.7577 11.1771 23.4133 11.1771H1.58648C1.24216 11.1771 0.95778 11.4472 0.946472 11.7913C0.869749 14.1262 1.01158 16.4659 1.37161 18.7796C1.64416 20.5312 3.06714 21.8765 4.83122 22.0505L6.37218 22.2025C10.4475 22.6044 14.5524 22.6044 18.6276 22.2025L20.1686 22.0505C21.9327 21.8765 23.3557 20.5312 23.6282 18.7796C23.9882 16.4659 24.1301 14.1262 24.0533 11.7913Z" fill="#0079F0"/>
</svg>
