<svg width="19" height="21" viewBox="0 0 19 21" fill="none" xmlns="http://www.w3.org/2000/svg">
<path d="M10.9991 0.692466C10.0768 0.137098 8.92308 0.137098 8.00077 0.692466L7.33388 1.09404C5.71575 2.06839 3.89918 2.66629 2.01867 2.84346L1.59851 2.88304C0.769147 2.96118 0.135376 3.65747 0.135376 4.49051V6.61386C0.135376 10.2029 1.59249 13.6382 4.17291 16.1327L8.37776 20.1976C9.00358 20.8026 9.99633 20.8026 10.6222 20.1976L14.827 16.1327C17.4074 13.6382 18.8645 10.2029 18.8645 6.61386V4.49051C18.8645 3.65747 18.2308 2.96118 17.4014 2.88304L16.9812 2.84346C15.1007 2.66629 13.2842 2.06839 11.666 1.09404L10.9991 0.692466Z" fill="#0079F0"/>
</svg>
