<svg width="19" height="29" viewBox="0 0 19 29" fill="none" xmlns="http://www.w3.org/2000/svg">
<path fill-rule="evenodd" clip-rule="evenodd" d="M18.219 13.2084L18.211 13.5226L18.219 13.8543L18.2114 14.1706L18.2189 14.5001L17.9752 25.1605C17.9449 26.4872 16.9359 27.5859 15.6166 27.7288C11.5507 28.1691 7.44916 28.1691 3.3833 27.7288C2.06399 27.5859 1.05496 26.4872 1.02463 25.1605L0.780925 14.5001L0.788508 14.1684L0.780949 13.8543L0.788898 13.5239L0.780884 13.2084L0.998791 4.62986C1.00023 4.57317 1.00298 4.51679 1.007 4.46074L1.02136 3.86377C1.05421 2.49886 2.09668 1.37121 3.45482 1.23149C3.56784 1.21986 3.6809 1.20856 3.79398 1.19758C3.94734 1.16194 4.1046 1.13595 4.26511 1.1203C7.74675 0.780964 11.2531 0.780964 14.7348 1.1203C14.8953 1.13595 15.0525 1.16193 15.2059 1.19757C15.319 1.20855 15.4321 1.21985 15.5451 1.23149C16.9033 1.37121 17.9458 2.49886 17.9786 3.86377L17.993 4.4621C17.997 4.51769 17.9997 4.57363 18.0011 4.62986L18.219 13.2084ZM14.6666 21.9271C15.2016 21.9271 15.6354 21.4934 15.6354 20.9583C15.6354 20.4233 15.2016 19.9896 14.6666 19.9896H4.33328C3.79826 19.9896 3.36453 20.4233 3.36453 20.9583C3.36453 21.4934 3.79826 21.9271 4.33328 21.9271H14.6666ZM9.49995 27.0293C10.57 27.0293 11.4374 26.1618 11.4374 25.0918C11.4374 24.0217 10.57 23.1543 9.49995 23.1543C8.4299 23.1543 7.56245 24.0217 7.56245 25.0918C7.56245 26.1618 8.4299 27.0293 9.49995 27.0293Z" fill="#0079F0"/>
</svg>
