<svg width="23" height="27" viewBox="0 0 23 27" fill="none" xmlns="http://www.w3.org/2000/svg">
<path d="M7.30208 11.9167C7.30208 9.59822 9.18155 7.71875 11.5 7.71875C13.8184 7.71875 15.6979 9.59822 15.6979 11.9167C15.6979 14.2351 13.8184 16.1146 11.5 16.1146C9.18155 16.1146 7.30208 14.2351 7.30208 11.9167Z" fill="#0079F0"/>
<path fill-rule="evenodd" clip-rule="evenodd" d="M0.874159 10.4666C1.31803 5.08174 5.81793 0.9375 11.2211 0.9375H11.779C17.1821 0.9375 21.682 5.08174 22.1259 10.4666C22.3649 13.3659 21.4693 16.2448 19.6278 18.4968L13.4368 26.0683C12.4358 27.2925 10.5643 27.2925 9.56326 26.0683L3.37222 18.4968C1.53074 16.2448 0.635178 13.3659 0.874159 10.4666ZM11.5 5.78125C8.1115 5.78125 5.36458 8.52817 5.36458 11.9167C5.36458 15.3052 8.1115 18.0521 11.5 18.0521C14.8885 18.0521 17.6354 15.3052 17.6354 11.9167C17.6354 8.52817 14.8885 5.78125 11.5 5.78125Z" fill="#0079F0"/>
</svg>
