<svg width="21" height="25" viewBox="0 0 21 25" fill="none" xmlns="http://www.w3.org/2000/svg">
<path fill-rule="evenodd" clip-rule="evenodd" d="M0.0986328 2.45834C0.0986328 1.38829 0.966081 0.520844 2.03613 0.520844H18.8278C19.8978 0.520844 20.7653 1.38829 20.7653 2.45834V7.62501C20.7653 8.69506 19.8978 9.56251 18.8278 9.56251H2.03613C0.966081 9.56251 0.0986328 8.69506 0.0986328 7.62501V2.45834ZM2.74996 5.04168C2.74996 4.32831 3.32826 3.75001 4.04163 3.75001C4.755 3.75001 5.3333 4.32831 5.3333 5.04168C5.3333 5.75504 4.755 6.33334 4.04163 6.33334C3.32826 6.33334 2.74996 5.75504 2.74996 5.04168ZM7.91663 3.75001C7.20326 3.75001 6.62496 4.32831 6.62496 5.04168C6.62496 5.75504 7.20326 6.33334 7.91663 6.33334C8.63 6.33334 9.20829 5.75504 9.20829 5.04168C9.20829 4.32831 8.63 3.75001 7.91663 3.75001Z" fill="#0079F0"/>
<path fill-rule="evenodd" clip-rule="evenodd" d="M0.0986328 12.7917C0.0986328 11.7216 0.966081 10.8542 2.03613 10.8542H18.8278C19.8978 10.8542 20.7653 11.7216 20.7653 12.7917V17.9583C20.7653 19.0284 19.8978 19.8958 18.8278 19.8958H11.4687V22.1563H19.5416C20.0767 22.1563 20.5104 22.59 20.5104 23.125C20.5104 23.66 20.0767 24.0938 19.5416 24.0938H1.4583C0.923271 24.0938 0.489546 23.66 0.489546 23.125C0.489546 22.59 0.923271 22.1563 1.4583 22.1563H9.53121V19.8958H2.03613C0.966081 19.8958 0.0986328 19.0284 0.0986328 17.9583V12.7917ZM2.74996 15.375C2.74996 14.6616 3.32826 14.0833 4.04163 14.0833C4.755 14.0833 5.3333 14.6616 5.3333 15.375C5.3333 16.0884 4.755 16.6667 4.04163 16.6667C3.32826 16.6667 2.74996 16.0884 2.74996 15.375ZM6.62496 15.375C6.62496 14.6616 7.20326 14.0833 7.91663 14.0833C8.63 14.0833 9.20829 14.6616 9.20829 15.375C9.20829 16.0884 8.63 16.6667 7.91663 16.6667C7.20326 16.6667 6.62496 16.0884 6.62496 15.375Z" fill="#0079F0"/>
</svg>
