<svg width="10" height="12" viewBox="0 0 10 12" fill="none" xmlns="http://www.w3.org/2000/svg">
<path fill-rule="evenodd" clip-rule="evenodd" d="M1.64579 2.20833C1.64579 1.16129 2.49459 0.3125 3.54163 0.3125C4.12801 0.3125 4.65221 0.578714 4.99996 0.996876C5.34772 0.578714 5.87191 0.3125 6.45829 0.3125C7.50533 0.3125 8.35413 1.16129 8.35413 2.20833C8.35413 2.64832 8.20424 3.0533 7.95275 3.375H8.49996C9.30538 3.375 9.95829 4.02792 9.95829 4.83333V5.5625C9.95829 5.80412 9.76242 6 9.52079 6H5.61246C5.51581 6 5.43746 5.92165 5.43746 5.825V3.80614C5.27241 3.70047 5.12481 3.56992 4.99996 3.41979C4.87511 3.56992 4.72751 3.70047 4.56246 3.80614V5.825C4.56246 5.92165 4.48411 6 4.38746 6H0.479126C0.237501 6 0.041626 5.80412 0.041626 5.5625V4.83333C0.041626 4.02792 0.694544 3.375 1.49996 3.375H2.04717C1.79568 3.0533 1.64579 2.64832 1.64579 2.20833ZM4.56246 2.20833C4.56246 1.64454 4.10542 1.1875 3.54163 1.1875C2.97784 1.1875 2.52079 1.64454 2.52079 2.20833C2.52079 2.77212 2.97784 3.22917 3.54163 3.22917C4.10542 3.22917 4.56246 2.77212 4.56246 2.20833ZM5.43746 2.20833C5.43746 2.77212 5.8945 3.22917 6.45829 3.22917C7.02208 3.22917 7.47913 2.77212 7.47913 2.20833C7.47913 1.64454 7.02208 1.1875 6.45829 1.1875C5.8945 1.1875 5.43746 1.64454 5.43746 2.20833Z" fill="url(#paint0_linear_202_217)"/>
<path d="M4.56246 6.9625C4.56246 6.86585 4.48411 6.7875 4.38746 6.7875H1.29522C1.05859 6.7875 0.856382 6.95801 0.816416 7.19124C0.686887 7.94713 0.686887 8.71955 0.816416 9.47544L0.947264 10.239C1.03537 10.7532 1.45295 11.1471 1.97136 11.205L2.59269 11.2744C3.18822 11.341 3.78582 11.3828 4.38394 11.3998C4.48194 11.4026 4.56246 11.3236 4.56246 11.2256L4.56246 6.9625Z" fill="url(#paint1_linear_202_217)"/>
<path d="M5.61598 11.3998C5.51798 11.4026 5.43746 11.3236 5.43746 11.2256L5.43746 6.9625C5.43746 6.86585 5.51581 6.7875 5.61246 6.7875H8.7047C8.94133 6.7875 9.14354 6.95801 9.1835 7.19124C9.31303 7.94713 9.31303 8.71955 9.1835 9.47544L9.05265 10.239C8.96455 10.7532 8.54697 11.1471 8.02855 11.205L7.40723 11.2744C6.8117 11.341 6.2141 11.3828 5.61598 11.3998Z" fill="url(#paint2_linear_202_217)"/>
<defs>
<linearGradient id="paint0_linear_202_217" x1="4.99996" y1="0.3125" x2="4.99996" y2="11.3999" gradientUnits="userSpaceOnUse">
<stop stop-color="#FF9900"/>
<stop offset="1" stop-color="#FF630C"/>
</linearGradient>
<linearGradient id="paint1_linear_202_217" x1="4.99996" y1="0.3125" x2="4.99996" y2="11.3999" gradientUnits="userSpaceOnUse">
<stop stop-color="#FF9900"/>
<stop offset="1" stop-color="#FF630C"/>
</linearGradient>
<linearGradient id="paint2_linear_202_217" x1="4.99996" y1="0.3125" x2="4.99996" y2="11.3999" gradientUnits="userSpaceOnUse">
<stop stop-color="#FF9900"/>
<stop offset="1" stop-color="#FF630C"/>
</linearGradient>
</defs>
</svg>
